<?xml version="1.0" encoding="UTF-8"?>
<!-- This file is generated by npm run build:icons -->
<svg xmlns="http://www.w3.org/2000svg" xmlns:xlink="http://www.w3.org/1999/xlink" width="0" height="0">
<defs>
<symbol viewBox="0 0 24 24" fill="none" id="appointment">
<path fill-rule="evenodd" clip-rule="evenodd" d="M4.33058 11.6437C3.37671 8.66561 4.49148 5.26174 7.618 4.25453C9.26259 3.72382 11.0779 4.03673 12.4451 5.06527C13.7386 4.06518 15.6205 3.72737 17.2633 4.25453C20.3899 5.26174 21.5117 8.66561 20.5588 11.6437C19.0742 16.3641 12.4451 20 12.4451 20C12.4451 20 5.86494 16.4192 4.33058 11.6437Z" stroke="#151A21" stroke-width="1.5" stroke-linecap="round" stroke-linejoin="round"></path>
<path d="M16.001 7.28918C16.9522 7.59677 17.6242 8.44574 17.7051 9.44227" stroke="#151A21" stroke-width="1.5" stroke-linecap="round" stroke-linejoin="round"></path>
</symbol>
<symbol viewBox="0 0 24 24" fill="none" id="arrow-left">
<path d="M14.7825 19.9999C14.5833 20.0006 14.3865 19.9566 14.2065 19.8713C14.0266 19.7859 13.8681 19.6613 13.7426 19.5066L7.30328 12.8407C7.1072 12.6021 7 12.3029 7 11.9941C7 11.6853 7.1072 11.3861 7.30328 11.1475L13.9692 4.48162C14.1955 4.20936 14.5207 4.03814 14.8732 4.00564C15.2257 3.97314 15.5768 4.08201 15.849 4.3083C16.1213 4.5346 16.2925 4.85978 16.325 5.2123C16.3575 5.56483 16.2486 5.91584 16.0223 6.1881L10.063 12.0008L15.8223 17.8135C15.9854 18.0092 16.0889 18.2475 16.1208 18.5002C16.1526 18.7529 16.1114 19.0094 16.002 19.2394C15.8926 19.4694 15.7196 19.6633 15.5035 19.7981C15.2874 19.9328 15.0371 20.0029 14.7825 19.9999Z" fill="#151A21"></path>
</symbol>
<symbol viewBox="0 0 24 24" fill="none" id="eye-off">
<g clip-path="url(#clip0_1_307)">
<path d="M4.70994 3.28994C4.6167 3.1967 4.50601 3.12274 4.38419 3.07228C4.26237 3.02182 4.1318 2.99585 3.99994 2.99585C3.86808 2.99585 3.73751 3.02182 3.61569 3.07228C3.49387 3.12274 3.38318 3.1967 3.28994 3.28994C3.10164 3.47825 2.99585 3.73364 2.99585 3.99994C2.99585 4.26624 3.10164 4.52164 3.28994 4.70994L8.91994 10.3399C8.56375 11.0026 8.43053 11.7623 8.54003 12.5066C8.64953 13.2509 8.99593 13.9401 9.52788 14.472C10.0598 15.004 10.749 15.3503 11.4933 15.4599C12.2376 15.5694 12.9973 15.4361 13.6599 15.0799L19.2899 20.7099C19.3829 20.8037 19.4935 20.8781 19.6154 20.9288C19.7372 20.9796 19.8679 21.0057 19.9999 21.0057C20.132 21.0057 20.2627 20.9796 20.3845 20.9288C20.5064 20.8781 20.617 20.8037 20.7099 20.7099C20.8037 20.617 20.8781 20.5064 20.9288 20.3845C20.9796 20.2627 21.0057 20.132 21.0057 19.9999C21.0057 19.8679 20.9796 19.7372 20.9288 19.6154C20.8781 19.4935 20.8037 19.3829 20.7099 19.2899L4.70994 3.28994ZM11.9999 13.4999C11.6021 13.4999 11.2206 13.3419 10.9393 13.0606C10.658 12.7793 10.4999 12.3978 10.4999 11.9999V11.9299L12.0599 13.4899L11.9999 13.4999Z" fill="#151A21"></path>
<path d="M12.2201 17C7.92007 17.1 5.10007 13.41 4.22007 12C4.84654 11.0007 5.59943 10.0865 6.46007 9.27999L5.00007 7.87C3.87139 8.93347 2.90448 10.1564 2.13007 11.5C2.0423 11.652 1.99609 11.8245 1.99609 12C1.99609 12.1755 2.0423 12.348 2.13007 12.5C2.76007 13.59 6.13007 19 12.0201 19H12.2701C13.3776 18.9671 14.4708 18.7404 15.5001 18.33L13.9201 16.75C13.3644 16.8962 12.7943 16.98 12.2201 17Z" fill="#151A21"></path>
<path d="M21.87 11.5C21.23 10.39 17.7 4.81999 11.73 4.99999C10.6225 5.03285 9.52924 5.25961 8.5 5.66999L10.08 7.24999C10.6356 7.10382 11.2058 7.01997 11.78 6.99999C16.07 6.88999 18.89 10.59 19.78 12C19.1381 13.0023 18.3682 13.9167 17.49 14.72L19 16.13C20.1428 15.0693 21.1234 13.8462 21.91 12.5C21.9918 12.3445 22.0311 12.1702 22.0241 11.9946C22.0171 11.8191 21.9639 11.6485 21.87 11.5Z" fill="#151A21"></path>
</g>
<defs>
<clipPath id="clip0_1_307">
<rect width="24" height="24" fill="white"></rect>
</clipPath>
</defs>
</symbol>
<symbol viewBox="0 0 24 24" fill="none" id="eye-on">
<path fill-rule="evenodd" clip-rule="evenodd" d="M15.4141 12.302C15.4141 14.048 13.9981 15.464 12.2521 15.464C10.5061 15.464 9.09009 14.048 9.09009 12.302C9.09009 10.555 10.5061 9.14001 12.2521 9.14001C13.9981 9.14001 15.4141 10.555 15.4141 12.302Z" stroke="#151A21" stroke-width="1.5" stroke-linecap="round" stroke-linejoin="round"></path>
<path fill-rule="evenodd" clip-rule="evenodd" d="M3 12.302C3 15.582 7.142 19.604 12.252 19.604C17.361 19.604 21.504 15.585 21.504 12.302C21.504 9.019 17.361 5 12.252 5C7.142 5 3 9.022 3 12.302Z" stroke="#151A21" stroke-width="1.5" stroke-linecap="round" stroke-linejoin="round"></path>
</symbol>
<symbol viewBox="0 0 24 24" fill="none" id="map">
<path d="M12.4167 4C8.86917 4 6 6.86917 6 10.4167C6 15.2292 12.4167 20.3333 12.4167 20.3333C12.4167 20.3333 18.8333 15.2292 18.8333 10.4167C18.8333 6.86917 15.9642 4 12.4167 4ZM12.4167 12.7083C11.1517 12.7083 10.125 11.6817 10.125 10.4167C10.125 9.15167 11.1517 8.125 12.4167 8.125C13.6817 8.125 14.7083 9.15167 14.7083 10.4167C14.7083 11.6817 13.6817 12.7083 12.4167 12.7083Z" fill="#151A21"></path>
</symbol>
<symbol viewBox="0 0 48 48" fill="none" id="Vector">
<path fill-rule="evenodd" clip-rule="evenodd" d="M24 48C37.2548 48 48 37.2548 48 24C48 10.7452 37.2548 0 24 0C10.7452 0 0 10.7452 0 24C0 37.2548 10.7452 48 24 48ZM16.8511 28.0851C16.8511 28.0851 19.4446 27.7261 19.4043 24.5106C19.3639 21.2957 19.4043 18.8936 19.4043 18.8936C19.4043 18.8936 19.3665 17.8723 20.1702 17.8723C20.1702 17.8723 20.9663 17.7912 20.9663 18.8936C20.9663 19.996 20.9663 30.1443 20.9663 30.1443C20.9663 30.1443 20.6557 32.6783 24 32.6783C27.3443 32.6783 27.0756 30.1443 27.0756 30.1443V22.4681C27.0756 22.4681 27.0224 21.4468 27.8298 21.4468C28.6372 21.4468 28.5957 22.4681 28.5957 22.4681V25.6623C28.5957 25.6623 28.2843 28.0851 31.9149 28.0851H36.766V26.0426H31.9149C31.9149 26.0426 30.6411 25.7872 30.6411 24.5106V21.9574C30.6411 21.9574 30.6378 19.4114 27.8298 19.4114C25.0217 19.4114 25.0217 21.9574 25.0217 21.9574V29.617C25.0217 29.617 25.0113 30.6383 24 30.6383C22.9887 30.6383 22.9887 29.617 22.9887 29.617V18.8936C22.9887 18.8936 23.0739 15.8273 20.1702 15.8273C17.2666 15.8273 17.3617 18.8936 17.3617 18.8936V24.2553C17.3617 24.2553 17.3617 26.0426 16.0851 26.0426H11.234V28.0851H16.8511Z" fill="#32CE71"></path>
</symbol>
</defs>
</svg>
