<svg width="48" height="48" viewBox="0 0 48 48" fill="none" xmlns="http://www.w3.org/2000/svg">
<path fill-rule="evenodd" clip-rule="evenodd" d="M24 48C37.2548 48 48 37.2548 48 24C48 10.7452 37.2548 0 24 0C10.7452 0 0 10.7452 0 24C0 37.2548 10.7452 48 24 48ZM16.8511 28.0851C16.8511 28.0851 19.4446 27.7261 19.4043 24.5106C19.3639 21.2957 19.4043 18.8936 19.4043 18.8936C19.4043 18.8936 19.3665 17.8723 20.1702 17.8723C20.1702 17.8723 20.9663 17.7912 20.9663 18.8936C20.9663 19.996 20.9663 30.1443 20.9663 30.1443C20.9663 30.1443 20.6557 32.6783 24 32.6783C27.3443 32.6783 27.0756 30.1443 27.0756 30.1443V22.4681C27.0756 22.4681 27.0224 21.4468 27.8298 21.4468C28.6372 21.4468 28.5957 22.4681 28.5957 22.4681V25.6623C28.5957 25.6623 28.2843 28.0851 31.9149 28.0851H36.766V26.0426H31.9149C31.9149 26.0426 30.6411 25.7872 30.6411 24.5106V21.9574C30.6411 21.9574 30.6378 19.4114 27.8298 19.4114C25.0217 19.4114 25.0217 21.9574 25.0217 21.9574V29.617C25.0217 29.617 25.0113 30.6383 24 30.6383C22.9887 30.6383 22.9887 29.617 22.9887 29.617V18.8936C22.9887 18.8936 23.0739 15.8273 20.1702 15.8273C17.2666 15.8273 17.3617 18.8936 17.3617 18.8936V24.2553C17.3617 24.2553 17.3617 26.0426 16.0851 26.0426H11.234V28.0851H16.8511Z" fill="#32CE71"/>
</svg>
